<svg width="19" height="24" viewBox="0 0 19 24" fill="none" xmlns="http://www.w3.org/2000/svg">
<path d="M8.40837 23.5158C1.59753 13.6421 0.333313 12.6287 0.333313 9C0.333313 4.02942 4.36273 0 9.33331 0C14.3039 0 18.3333 4.02942 18.3333 9C18.3333 12.6287 17.0691 13.6421 10.2582 23.5158C9.81129 24.1614 8.85528 24.1614 8.40837 23.5158ZM9.33331 12.75C11.4044 12.75 13.0833 11.0711 13.0833 9C13.0833 6.92892 11.4044 5.25 9.33331 5.25C7.26223 5.25 5.58331 6.92892 5.58331 9C5.58331 11.0711 7.26223 12.75 9.33331 12.75Z" fill="#810A82"/>
</svg>
